# xmcd
#
# Track frame offsets:
#	150
#	15195
#	45475
#
# Disc length: 2585 seconds
#
# Revision: 1
# Processed by: cddbd v1.4PL0 Copyright (c) Steve Scherf et al.
# Submitted via: audiograbber 1.82.02
#
DISCID=120a1703
DTITLE=Eric Heatherly - Flowers On The Wall
DYEAR=2000
DGENRE=country
TTITLE0=Flowers On The Wall
TTITLE1=Someone Else's Cadillac
TTITLE2=Enhanced CD - Data Track
EXTD=Promotional Single
EXTT0=
EXTT1=
EXTT2=
PLAYORDER=
